HIERARCHY
ROOT Hips
{
  OFFSET 352.181 89.6817 215.948
  CHANNELS 6 Xposition Yposition Zposition Zrotation Xrotation Yrotation
  JOINT RightUpLeg
  {
    OFFSET -9.28908 -1.54242 -0.003762
    CHANNELS 3 Zrotation Xrotation Yrotation
    JOINT RightLeg
    {
      OFFSET 0.175992 -41.9066 0.16442
      CHANNELS 3 Zrotation Xrotation Yrotation
      JOINT RightFoot
      {
        OFFSET -0.850518 -41.676 1.19357
        CHANNELS 3 Zrotation Xrotation Yrotation
        End Site
        {
          OFFSET 0 -7.69 17.5
        }
      }
    }
  }
  JOINT LeftUpLeg
  {
    OFFSET 9.35911 -1.62184 0.0934226
    CHANNELS 3 Zrotation Xrotation Yrotation
    JOINT LeftLeg
    {
      OFFSET 0.11037 -41.8771 -4.76722e-05
      CHANNELS 3 Zrotation Xrotation Yrotation
      JOINT LeftFoot
      {
        OFFSET 0.784832 -42.2153 -2.4698
        CHANNELS 3 Zrotation Xrotation Yrotation
        End Site
        {
          OFFSET 0 -7.69 17.5
        }
      }
    }
  }
  JOINT Spine
  {
    OFFSET -0.0264112 14.3118 0.141242
    CHANNELS 3 Zrotation Xrotation Yrotation
    JOINT Spine1
    {
      OFFSET -0.0608006 9.71827 0.0702426
      CHANNELS 3 Zrotation Xrotation Yrotation
      JOINT Spine2
      {
        OFFSET 0.040197 10.1251 -0.0199022
        CHANNELS 3 Zrotation Xrotation Yrotation
        JOINT Spine3
        {
          OFFSET -0.018884 9.71791 0.0127475
          CHANNELS 3 Zrotation Xrotation Yrotation
          JOINT Neck
          {
            OFFSET -0.169577 10.3664 -0.0885607
            CHANNELS 3 Zrotation Xrotation Yrotation
            JOINT Head
            {
              OFFSET -0.26372 9.48406 0.127016
              CHANNELS 3 Zrotation Xrotation Yrotation
              End Site
              {
                OFFSET 0 15.95 0
              }
            }
          }
          JOINT RightShoulder
          {
            OFFSET -3.21308 6.8767 -0.0450237
            CHANNELS 3 Zrotation Xrotation Yrotation
            JOINT RightArm
            {
              OFFSET -12.7762 -0.0188046 -0.0629949
              CHANNELS 3 Zrotation Xrotation Yrotation
              JOINT RightForeArm
              {
                OFFSET -26.5383 -0.000218244 -0.103623
                CHANNELS 3 Zrotation Xrotation Yrotation
                JOINT RightHand
                {
                  OFFSET -25.8669 -0.047899 -0.0603739
                  CHANNELS 3 Zrotation Xrotation Yrotation
                  JOINT RightHandThumb1
                  {
                    OFFSET -2.48905 0.190105 3.12053
                    CHANNELS 3 Zrotation Xrotation Yrotation
                    JOINT RightHandThumb2
                    {
                      OFFSET -3.68274 0 0
                      CHANNELS 3 Zrotation Xrotation Yrotation
                      JOINT RightHandThumb3
                      {
                        OFFSET -2.55832 0 0
                        CHANNELS 3 Zrotation Xrotation Yrotation
                        End Site
                        {
                          OFFSET -2.194 0 0
                        }
                      }
                    }
                  }
                  JOINT RightInHandIndex
                  {
                    OFFSET -3.22368 0.508421 1.97842
                    CHANNELS 3 Zrotation Xrotation Yrotation
                    JOINT RightHandIndex1
                    {
                      OFFSET -5.21684 -0.091368 0.999158
                      CHANNELS 3 Zrotation Xrotation Yrotation
                      JOINT RightHandIndex2
                      {
                        OFFSET -3.61937 0 0
                        CHANNELS 3 Zrotation Xrotation Yrotation
                        JOINT RightHandIndex3
                        {
                          OFFSET -2.0521 0 0
                          CHANNELS 3 Zrotation Xrotation Yrotation
                          End Site
                          {
                            OFFSET -1.805 0 0
                          }
                        }
                      }
                    }
                  }
                  JOINT RightInHandMiddle
                  {
                    OFFSET -3.38211 0.517263 0.756737
                    CHANNELS 3 Zrotation Xrotation Yrotation
                    JOINT RightHandMiddle1
                    {
                      OFFSET -5.17411 -0.084 0.313895
                      CHANNELS 3 Zrotation Xrotation Yrotation
                      JOINT RightHandMiddle2
                      {
                        OFFSET -3.94947 0 0
                        CHANNELS 3 Zrotation Xrotation Yrotation
                        JOINT RightHandMiddle3
                        {
                          OFFSET -2.47579 0 0
                          CHANNELS 3 Zrotation Xrotation Yrotation
                          End Site
                          {
                            OFFSET -1.975 0 0
                          }
                        }
                      }
                    }
                  }
                  JOINT RightInHandRing
                  {
                    OFFSET -3.36516 0.537895 -0.128947
                    CHANNELS 3 Zrotation Xrotation Yrotation
                    JOINT RightHandRing1
                    {
                      OFFSET -4.63474 -0.022105 -0.478947
                      CHANNELS 3 Zrotation Xrotation Yrotation
                      JOINT RightHandRing2
                      {
                        OFFSET -3.44238 0 0
                        CHANNELS 3 Zrotation Xrotation Yrotation
                        JOINT RightHandRing3
                        {
                          OFFSET -2.3881 0 0
                          CHANNELS 3 Zrotation Xrotation Yrotation
                          End Site
                          {
                            OFFSET -1.857 0 0
                          }
                        }
                      }
                    }
                  }
                  JOINT RightInHandPinky
                  {
                    OFFSET -3.16105 0.469368 -1.20179
                    CHANNELS 3 Zrotation Xrotation Yrotation
                    JOINT RightHandPinky1
                    {
                      OFFSET -4.14105 -0.022105 -1.09053
                      CHANNELS 3 Zrotation Xrotation Yrotation
                      JOINT RightHandPinky2
                      {
                        OFFSET -2.75653 0 0
                        CHANNELS 3 Zrotation Xrotation Yrotation
                        JOINT RightHandPinky3
                        {
                          OFFSET -1.74189 0 0
                          CHANNELS 3 Zrotation Xrotation Yrotation
                          End Site
                          {
                            OFFSET -1.645 0 0
                          }
                        }
                      }
                    }
                  }
                }
              }
            }
          }
          JOINT LeftShoulder
          {
            OFFSET 3.21013 6.92813 0.031381
            CHANNELS 3 Zrotation Xrotation Yrotation
            JOINT LeftArm
            {
              OFFSET 12.8361 0.00272676 -0.00293476
              CHANNELS 3 Zrotation Xrotation Yrotation
              JOINT LeftForeArm
              {
                OFFSET 26.5005 -0.02636 0.00399578
                CHANNELS 3 Zrotation Xrotation Yrotation
                JOINT LeftHand
                {
                  OFFSET 25.9821 -0.0367196 0.00246136
                  CHANNELS 3 Zrotation Xrotation Yrotation
                  JOINT LeftHandThumb1
                  {
                    OFFSET 2.48905 0.190105 3.12053
                    CHANNELS 3 Zrotation Xrotation Yrotation
                    JOINT LeftHandThumb2
                    {
                      OFFSET 3.68274 0 0
                      CHANNELS 3 Zrotation Xrotation Yrotation
                      JOINT LeftHandThumb3
                      {
                        OFFSET 2.55832 0 0
                        CHANNELS 3 Zrotation Xrotation Yrotation
                        End Site
                        {
                          OFFSET 2.194 0 0
                        }
                      }
                    }
                  }
                  JOINT LeftInHandIndex
                  {
                    OFFSET 3.22368 0.508421 1.97842
                    CHANNELS 3 Zrotation Xrotation Yrotation
                    JOINT LeftHandIndex1
                    {
                      OFFSET 5.21684 -0.091368 0.999158
                      CHANNELS 3 Zrotation Xrotation Yrotation
                      JOINT LeftHandIndex2
                      {
                        OFFSET 3.61937 0 0
                        CHANNELS 3 Zrotation Xrotation Yrotation
                        JOINT LeftHandIndex3
                        {
                          OFFSET 2.0521 0 0
                          CHANNELS 3 Zrotation Xrotation Yrotation
                          End Site
                          {
                            OFFSET 1.805 0 0
                          }
                        }
                      }
                    }
                  }
                  JOINT LeftInHandMiddle
                  {
                    OFFSET 3.38211 0.517263 0.756737
                    CHANNELS 3 Zrotation Xrotation Yrotation
                    JOINT LeftHandMiddle1
                    {
                      OFFSET 5.17411 -0.084 0.313895
                      CHANNELS 3 Zrotation Xrotation Yrotation
                      JOINT LeftHandMiddle2
                      {
                        OFFSET 3.94947 0 0
                        CHANNELS 3 Zrotation Xrotation Yrotation
                        JOINT LeftHandMiddle3
                        {
                          OFFSET 2.47579 0 0
                          CHANNELS 3 Zrotation Xrotation Yrotation
                          End Site
                          {
                            OFFSET 1.975 0 0
                          }
                        }
                      }
                    }
                  }
                  JOINT LeftInHandRing
                  {
                    OFFSET 3.36516 0.537895 -0.128947
                    CHANNELS 3 Zrotation Xrotation Yrotation
                    JOINT LeftHandRing1
                    {
                      OFFSET 4.63474 -0.022105 -0.478947
                      CHANNELS 3 Zrotation Xrotation Yrotation
                      JOINT LeftHandRing2
                      {
                        OFFSET 3.44238 0 0
                        CHANNELS 3 Zrotation Xrotation Yrotation
                        JOINT LeftHandRing3
                        {
                          OFFSET 2.3881 0 0
                          CHANNELS 3 Zrotation Xrotation Yrotation
                          End Site
                          {
                            OFFSET 1.857 0 0
                          }
                        }
                      }
                    }
                  }
                  JOINT LeftInHandPinky
                  {
                    OFFSET 3.16105 0.469368 -1.20179
                    CHANNELS 3 Zrotation Xrotation Yrotation
                    JOINT LeftHandPinky1
                    {
                      OFFSET 4.14105 -0.022105 -1.09053
                      CHANNELS 3 Zrotation Xrotation Yrotation
                      JOINT LeftHandPinky2
                      {
                        OFFSET 2.75653 0 0
                        CHANNELS 3 Zrotation Xrotation Yrotation
                        JOINT LeftHandPinky3
                        {
                          OFFSET 1.74189 0 0
                          CHANNELS 3 Zrotation Xrotation Yrotation
                          End Site
                          {
                            OFFSET 1.645 0 0
                          }
                        }
                      }
                    }
                  }
                }
              }
            }
          }
        }
      }
    }
  }
}
MOTION
Frames: 3
Frame Time: 0.00833333
1.499993994752054505e+02 2.305478175292089132e-03 1.104740486174601985e-03 5.207301041017235732e-03 2.000212284201533745e-03 1.615741138160878320e-03 -9.613237345944505852e-03 1.438039320141717070e-03 -2.865147315246108564e-02 -5.488224535767890003e-03 -2.093459321217001207e-02 5.806555158769263064e-03 8.722548138250308877e-03 1.415770864454593374e-02 1.515057093333647877e-03 6.305541608577072210e-05 -3.866525675667306389e-03 5.447647789526529997e-03 1.011001242733253723e-02 3.755736109075618733e-03 -2.517156044800870560e-02 5.216077381652055832e-03 -1.009772545891558879e-03 1.637288594798703284e-02 4.092961205199177090e-03 -2.271597380475538156e-04 -1.226991877070488478e-02 1.075478702690125426e-03 5.824973265718611773e-05 -3.186919758191934880e-03 1.769562813644070436e-03 1.495232311688058974e-04 -4.982902537391536643e-03 5.653679390105651012e-05 -3.544773393173363961e-05 -3.350246481635340851e-05 1.165447753562803748e-03 -3.555560579176142953e-03 1.248223810983237377e-02 -2.338577888067927026e-03 -2.181096548101377750e-04 4.631840105464585765e-03 -3.406357395173999041e-03 -3.000110150015474712e-03 1.382525218101198980e-02 -7.018851953305815794e-02 -1.207262551564168866e-03 -3.058560846158850030e-02 -7.890748178815791547e-03 5.396568023931166969e-02 3.096356118800228097e-02 -1.099736935041698421e-01 7.167901733803450082e-02 -2.677700623951732167e-02 0.000000000000000000e+00 0.000000000000000000e+00 0.000000000000000000e+00 -7.236045695835711845e-15 -4.660549051469680943e-16 0.000000000000000000e+00 -1.246082721156717858e-14 -7.125152130022079265e-15 0.000000000000000000e+00 -1.249689471557316144e-16 2.611784901757104753e-15 -5.829040140134464424e-16 0.000000000000000000e+00 0.000000000000000000e+00 0.000000000000000000e+00 0.000000000000000000e+00 -1.743515202388169555e-15 -1.493600086995893833e-17 0.000000000000000000e+00 -1.736088238881099903e-15 -1.538616079683604120e-15 -1.249689471557316144e-16 2.611784901757104753e-15 -5.829040140134464424e-16 0.000000000000000000e+00 1.046509371959899118e-15 -2.659230269842318512e-15 0.000000000000000000e+00 -2.217557339250270316e-15 -3.148978578972212062e-15 0.000000000000000000e+00 2.003641525889558285e-15 8.434900882814034182e-16 -1.249689471557316144e-16 2.611784901757104753e-15 -5.829040140134464424e-16 0.000000000000000000e+00 0.000000000000000000e+00 0.000000000000000000e+00 0.000000000000000000e+00 1.973554727259648902e-15 2.166665645195540827e-16 0.000000000000000000e+00 -2.590991048578343207e-16 -2.850301057512727478e-15 -1.249689471557316144e-16 2.611784901757104753e-15 -5.829040140134464424e-16 0.000000000000000000e+00 0.000000000000000000e+00 0.000000000000000000e+00 0.000000000000000000e+00 -1.495938657981813613e-15 4.904178490597815185e-16 0.000000000000000000e+00 -1.069927946465308134e-15 6.432152199369526590e-16 2.215602937966031777e-03 -6.353317045790271567e-03 1.587336556216077318e-02 -1.007386508213498240e-02 3.309424335894000507e-02 -2.135742637361650112e-02 5.713866254807191403e-02 3.127329399102781599e-02 5.106850823331507416e-02 -7.123154407806375071e-03 1.105155857309866874e-01 -1.817123216971882615e-01 0.000000000000000000e+00 0.000000000000000000e+00 0.000000000000000000e+00 5.819505880395309761e-15 -6.093377121181629967e-16 0.000000000000000000e+00 5.796150737533160152e-15 -1.528276747699504156e-15 0.000000000000000000e+00 4.449483386603709705e-16 1.185475987521579704e-15 1.636412859398272460e-15 0.000000000000000000e+00 0.000000000000000000e+00 0.000000000000000000e+00 0.000000000000000000e+00 -9.550046202732743290e-16 -3.953994407633970451e-16 0.000000000000000000e+00 -1.253506184202601674e-15 -1.281196927333215826e-15 4.449483386603709705e-16 1.185475987521579704e-15 1.636412859398272460e-15 0.000000000000000000e+00 9.754629804474927222e-16 -4.155224285746049935e-15 0.000000000000000000e+00 1.727590167628437012e-16 2.071394351956930330e-15 0.000000000000000000e+00 1.593323942222418735e-16 -7.554730613128976237e-16 4.449483386603709705e-16 1.185475987521579704e-15 1.636412859398272460e-15 0.000000000000000000e+00 0.000000000000000000e+00 0.000000000000000000e+00 0.000000000000000000e+00 -2.096384194766134239e-16 5.157193329162557177e-16 0.000000000000000000e+00 -8.593016458024202211e-16 -1.353065387454920699e-15 4.449483386603709705e-16 1.185475987521579704e-15 1.636412859398272460e-15 0.000000000000000000e+00 0.000000000000000000e+00 0.000000000000000000e+00 0.000000000000000000e+00 -2.826151196936100692e-15 2.547667434503837561e-15 0.000000000000000000e+00 -3.260435370637997005e-15 -4.042690807586107005e-15
1.499990104974525025e+02 -6.734700599419397729e-04 5.334631393453601999e-04 -7.208861076525840787e-03 8.266746761687409489e-03 -7.190419804881327537e-02 6.914477112348675625e-02 2.883386257270263361e-02 5.114795993498837817e-02 1.667375615225850233e-02 1.717639664629444854e-02 5.709367214551292619e-02 -1.490029135759013586e-02 -5.692632443670181744e-03 -4.718091352860018760e-03 2.849937004082218894e-02 5.119597966256735078e-02 5.422757564365352639e-02 -2.400391178776310145e-03 -1.561263695511650893e-03 -5.618260065113131821e-03 5.066962255917516721e-03 -3.071335245044385948e-03 1.167217047401516300e-02 3.772612621817690928e-03 -2.489293254652375637e-03 2.926152855109970252e-02 9.119736086521515244e-04 -1.415353544074670299e-04 7.454971320672141959e-03 1.432839435401272966e-03 1.406098851077990195e-04 1.136400481687419896e-02 -4.042709841754728924e-05 7.609292622529358172e-05 -7.234539310336134457e-06 1.829132366815090695e-03 -5.202558989781644371e-04 1.922505788801432899e-02 9.579934809638915175e-04 -7.300230759515550496e-04 8.931737313654966939e-03 8.213812678712923560e-03 7.649465802337514393e-03 1.417480806635843492e-02 -5.779351279810928527e-02 -1.958119170040249421e-02 -6.100564460638437797e-02 6.877576207105989825e-02 -5.902499747164852845e-03 -4.556350872530199464e-02 6.881459913009921325e-02 8.157984454843418554e-02 6.544605277560965051e-02 0.000000000000000000e+00 0.000000000000000000e+00 0.000000000000000000e+00 6.608859342152051983e-15 4.627099650874844232e-15 0.000000000000000000e+00 1.481687500318160500e-15 3.248177829165059614e-15 0.000000000000000000e+00 -1.215768381992720163e-15 -2.243524955022911788e-15 7.517386250652165262e-18 0.000000000000000000e+00 0.000000000000000000e+00 0.000000000000000000e+00 0.000000000000000000e+00 8.729494823147584099e-16 1.564773214280354930e-15 0.000000000000000000e+00 8.425367306025724646e-16 6.962712518547415028e-16 -1.215768381992720163e-15 -2.243524955022911788e-15 7.517386250652165262e-18 0.000000000000000000e+00 7.233207066157362865e-16 4.212721636477489292e-16 0.000000000000000000e+00 -4.208414538306178724e-17 2.444040110133820540e-15 0.000000000000000000e+00 -1.114942747668906980e-16 2.140565120556030269e-15 -1.215768381992720163e-15 -2.243524955022911788e-15 7.517386250652165262e-18 0.000000000000000000e+00 0.000000000000000000e+00 0.000000000000000000e+00 0.000000000000000000e+00 -5.590869551626198645e-16 1.116615911835469228e-15 0.000000000000000000e+00 2.878150116567025367e-16 7.684137184204275389e-16 -1.215768381992720163e-15 -2.243524955022911788e-15 7.517386250652165262e-18 0.000000000000000000e+00 0.000000000000000000e+00 0.000000000000000000e+00 0.000000000000000000e+00 -1.111499584671432029e-15 1.274045018350541914e-16 0.000000000000000000e+00 1.178374651215526391e-16 9.316021168546965989e-16 6.581016743495019319e-03 6.364308265506150863e-03 2.549295543241730799e-02 -2.884230470372218386e-03 4.806539080415591150e-03 3.275918948679411996e-02 -2.269044126317820362e-03 -2.767034904463424802e-02 2.023942804706762091e-02 -1.402664737516832738e-01 6.337670510958588743e-02 -7.327859761152301366e-02 0.000000000000000000e+00 0.000000000000000000e+00 0.000000000000000000e+00 2.140263749017865321e-15 -2.356601731911712263e-15 0.000000000000000000e+00 1.945668666488266723e-15 -2.344034151456586293e-15 0.000000000000000000e+00 -1.505312598475477465e-16 -3.512946994841837991e-16 5.605785478458744811e-16 0.000000000000000000e+00 0.000000000000000000e+00 0.000000000000000000e+00 0.000000000000000000e+00 -1.366210186485245849e-16 -5.093084954904501081e-17 0.000000000000000000e+00 1.099132607258816722e-15 -4.020188387166147999e-16 -1.505312598475477465e-16 -3.512946994841837991e-16 5.605785478458744811e-16 0.000000000000000000e+00 3.515121778313595627e-16 -2.206915950122129389e-15 0.000000000000000000e+00 1.671176592132942915e-15 -2.235974588760553072e-15 0.000000000000000000e+00 7.736719929945410858e-16 -6.297578624277488134e-16 -1.505312598475477465e-16 -3.512946994841837991e-16 5.605785478458744811e-16 0.000000000000000000e+00 0.000000000000000000e+00 0.000000000000000000e+00 0.000000000000000000e+00 2.313900765169288220e-16 -2.251315913437855444e-15 0.000000000000000000e+00 1.368814101197289006e-15 -2.550199407800985552e-15 -1.505312598475477465e-16 -3.512946994841837991e-16 5.605785478458744811e-16 0.000000000000000000e+00 0.000000000000000000e+00 0.000000000000000000e+00 0.000000000000000000e+00 1.719335480017377298e-15 -5.119326758303075877e-15 0.000000000000000000e+00 1.375008221813653696e-15 -1.704316176629913392e-15
1.499998749334713750e+02 1.314548589447829270e-04 -9.288742448973861133e-04 -1.096528349728442836e-04 2.966192192012014756e-02 2.153069105298031569e-02 6.697954405763360299e-03 -6.332977272254966018e-03 -3.351906796309223752e-02 8.016202372194893011e-03 1.124427681176465126e-02 1.208616211586946258e-02 -8.269857636041291066e-03 -1.484548719690021758e-02 -1.903668199761946594e-02 1.565255800539484821e-02 -1.856646759205186122e-03 -3.136412672170704047e-02 -1.359108787080177440e-02 -2.370602284771021299e-03 1.797456595054078071e-03 1.149238751573828168e-02 -4.487611311487772932e-03 9.449658532509822365e-03 1.514328859654124129e-02 7.467446294062586760e-03 -1.331555991050747609e-02 3.625761742505197865e-03 2.368418588144337224e-03 -3.796082978391839436e-03 6.038131606434148091e-03 4.199052090813239733e-03 -6.123046619187422733e-03 -5.243641021552907736e-05 1.258063260330877426e-04 -1.022801967741041824e-05 -6.482526779780724865e-05 2.433287652432936793e-03 -6.781888875675989858e-05 8.722144501747172273e-04 2.629800697222607619e-03 7.800128766512504650e-04 3.005189966226360764e-03 3.774112009112788255e-03 -3.977595009951680107e-04 -4.916566597378840137e-02 -2.044073520306837963e-02 -4.581568674612472580e-02 9.311340162169251533e-02 -2.424823476731812963e-02 -8.337868896342086333e-02 1.079562223192775672e-01 4.777779437404283680e-02 3.794526465195357384e-02 0.000000000000000000e+00 0.000000000000000000e+00 0.000000000000000000e+00 -9.187973038039051465e-15 -1.205407688136172164e-15 0.000000000000000000e+00 -6.855804601593939070e-15 -3.279764409644331278e-15 0.000000000000000000e+00 8.702169474491992564e-16 3.337456009281060501e-15 1.741096756481054325e-16 0.000000000000000000e+00 0.000000000000000000e+00 0.000000000000000000e+00 0.000000000000000000e+00 -2.606761511731642876e-16 5.274892523273997779e-17 0.000000000000000000e+00 -7.756276584567793868e-16 -1.549998896628268018e-15 8.702169474491992564e-16 3.337456009281060501e-15 1.741096756481054325e-16 0.000000000000000000e+00 -2.291454442210170708e-15 1.247505145263853579e-15 0.000000000000000000e+00 -2.121143669653465355e-15 -1.126212884548511717e-15 0.000000000000000000e+00 8.277872159480838956e-16 -3.514563258958636813e-15 8.702169474491992564e-16 3.337456009281060501e-15 1.741096756481054325e-16 0.000000000000000000e+00 0.000000000000000000e+00 0.000000000000000000e+00 0.000000000000000000e+00 -2.235095707286740088e-15 6.454403552390306990e-16 0.000000000000000000e+00 -8.922121428289979562e-16 -2.405588663814696999e-16 8.702169474491992564e-16 3.337456009281060501e-15 1.741096756481054325e-16 0.000000000000000000e+00 0.000000000000000000e+00 0.000000000000000000e+00 0.000000000000000000e+00 -1.231758755643434347e-15 1.817090520610350769e-15 0.000000000000000000e+00 8.055745532609919893e-16 1.090626199224561196e-15 -2.069342776910447490e-03 6.789788712293121781e-03 2.638943540624506898e-03 -6.873744813280227225e-03 2.370924007594363628e-02 2.018375279490704569e-02 1.500646553749849545e-02 -6.959303899718435188e-03 -2.307525648110241717e-02 4.479857814279344756e-03 -1.614255455499735009e-02 3.150271426308967615e-02 0.000000000000000000e+00 0.000000000000000000e+00 0.000000000000000000e+00 -1.020753165544929822e-15 1.643063861743740166e-15 0.000000000000000000e+00 -1.736628898789704139e-15 -4.560062592908288091e-16 0.000000000000000000e+00 7.786773076202307888e-17 1.901012742094277989e-16 -2.015276242540883276e-15 0.000000000000000000e+00 0.000000000000000000e+00 0.000000000000000000e+00 0.000000000000000000e+00 -5.397407432637106733e-16 -4.182256390048025558e-16 0.000000000000000000e+00 -2.089974796891868550e-15 2.485414322362421772e-15 7.786773076202307888e-17 1.901012742094277989e-16 -2.015276242540883276e-15 0.000000000000000000e+00 -3.654791902714620481e-16 1.475854555210021080e-15 0.000000000000000000e+00 -5.258692070255174696e-16 3.014199657343003282e-15 0.000000000000000000e+00 8.282361764933529619e-16 -1.743246648627749475e-16 7.786773076202307888e-17 1.901012742094277989e-16 -2.015276242540883276e-15 0.000000000000000000e+00 0.000000000000000000e+00 0.000000000000000000e+00 0.000000000000000000e+00 1.921720280056883670e-16 4.436692622190118711e-15 0.000000000000000000e+00 -2.215107732637614645e-15 1.886898584840131236e-15 7.786773076202307888e-17 1.901012742094277989e-16 -2.015276242540883276e-15 0.000000000000000000e+00 0.000000000000000000e+00 0.000000000000000000e+00 0.000000000000000000e+00 -3.088194390085966309e-15 4.199828028588364777e-15 0.000000000000000000e+00 -3.248044498281821701e-15 2.350492908102563443e-15
